<svg width="15" height="18" viewBox="0 0 15 18" fill="none" xmlns="http://www.w3.org/2000/svg">
<path d="M6.72922 17.2661C1.05352 10.2247 0 9.50203 0 6.91422C0 3.36947 3.35785 0.495911 7.5 0.495911C11.6421 0.495911 15 3.36947 15 6.91422C15 9.50203 13.9465 10.2247 8.27078 17.2661C7.89832 17.7265 7.10164 17.7265 6.72922 17.2661ZM7.5 9.58851C9.2259 9.58851 10.625 8.3912 10.625 6.91422C10.625 5.43724 9.2259 4.23992 7.5 4.23992C5.7741 4.23992 4.375 5.43724 4.375 6.91422C4.375 8.3912 5.7741 9.58851 7.5 9.58851Z" fill="#0072CE"/>
</svg>
