<svg version="1.1" id="Capa_1" xmlns="http://www.w3.org/2000/svg" xmlns:xlink="http://www.w3.org/1999/xlink" x="0px" y="0px" viewBox="0 0 60 60" style="enable-background:new 0 0 60 60;" xml:space="preserve" width="26px" height="26px">
<style type="text/css">
	.st0{fill:#363636;}
</style>
<path class="st0" d="M54.8,51.4L38.7,35.3c2.6-3.1,4.2-7.1,4.2-11.5C42.9,14,34.9,6,25.1,6C15.2,6,7.2,14,7.2,23.8  c0,9.8,8,17.8,17.8,17.8c4.4,0,8.4-1.6,11.5-4.2l16.1,16.1L54.8,51.4z M10.2,23.8C10.2,15.6,16.9,9,25.1,9c8.2,0,14.8,6.7,14.8,14.8  c0,8.2-6.7,14.8-14.8,14.8C16.9,38.7,10.2,32,10.2,23.8z"/>
</svg>