<svg width="82" height="80" viewBox="0 0 82 80" fill="none" xmlns="http://www.w3.org/2000/svg">
<path d="M40.8333 0C18.2933 0 0 17.7333 0 39.5833C0 61.4333 18.2933 79.1667 40.8333 79.1667C63.3733 79.1667 81.6667 61.4333 81.6667 39.5833C81.6667 17.7333 63.3733 0 40.8333 0ZM29.7675 56.5646L15.1083 42.3542C14.7303 41.9877 14.4304 41.5526 14.2258 41.0738C14.0212 40.595 13.9159 40.0818 13.9159 39.5635C13.9159 39.0453 14.0212 38.5321 14.2258 38.0533C14.4304 37.5745 14.7303 37.1394 15.1083 36.7729C15.4864 36.4064 15.9352 36.1157 16.4291 35.9174C16.9231 35.7191 17.4525 35.617 17.9871 35.617C18.5217 35.617 19.0511 35.7191 19.5451 35.9174C20.039 36.1157 20.4878 36.4064 20.8658 36.7729L32.6667 48.1729L60.76 20.9396C61.5235 20.1995 62.559 19.7837 63.6387 19.7837C64.7185 19.7837 65.754 20.1995 66.5175 20.9396C67.281 21.6797 67.7099 22.6835 67.7099 23.7302C67.7099 24.7769 67.281 25.7807 66.5175 26.5208L35.525 56.5646C35.1472 56.9315 34.6985 57.2227 34.2045 57.4213C33.7106 57.6199 33.181 57.7222 32.6463 57.7222C32.1115 57.7222 31.5819 57.6199 31.088 57.4213C30.594 57.2227 30.1453 56.9315 29.7675 56.5646Z" fill="#22DF85"/>
</svg>
