<svg width="45" height="45" viewBox="0 0 45 45" fill="none" xmlns="http://www.w3.org/2000/svg">
<circle cx="22.5" cy="22.5" r="22" fill="white" stroke="#3290D9"/>
<g clip-path="url(#clip0)">
<path d="M13.6022 33.0488C11.873 26.9402 11.873 14.4168 11.873 14.4168L34.1855 14.3266C34.1855 14.3266 34.1855 25.6715 32.8892 32.9723L13.6022 33.0488Z" fill="#312D2D"/>
<path d="M11.4267 34.2957V37H34.5733V34.2957C34.5733 30.1477 28.8916 28.0422 23.0877 28.0504C17.3183 28.0586 11.4267 29.9043 11.4267 34.2957Z" fill="#3290D9"/>
<path d="M23.1169 28.0504C20.8086 28.0504 19.2547 28.3402 19.2547 28.3402L20.9547 37H23.1169V28.0504Z" fill="white"/>
<path d="M23 28.0504C25.2312 28.0504 26.7506 28.3375 26.7506 28.3375L25.0427 37H23V28.0504Z" fill="white"/>
<path d="M23.0292 25.4145C29.1906 25.4145 34.1855 20.5788 34.1855 14.6137C34.1855 8.64856 29.1906 3.81289 23.0292 3.81289C16.8678 3.81289 11.873 8.64856 11.873 14.6137C11.873 20.5788 16.8678 25.4145 23.0292 25.4145Z" fill="#312D2D"/>
<path d="M23.0292 26.6832H20.6173V29.3055C20.6173 30.4922 21.4727 31.1047 22.6839 31.1047L23.6588 31.0582C24.87 31.0582 25.4438 30.4895 25.4438 29.3055V26.6832H23.0292Z" fill="#F2B08C"/>
<path d="M25.4411 28.1598C25.4411 28.5781 25.0931 29.3684 24.538 30.0246C23.9748 30.6918 23.0372 31.1047 23.0372 31.1047L25.797 34.1344L26.7852 28.3402C26.7852 28.343 25.9644 28.2117 25.4411 28.1598Z" fill="white"/>
<path d="M23 5.71602C16.532 5.71602 14.84 10.8758 14.84 18.1273C14.84 25.3762 19.8577 27.5883 23 27.5883C26.1423 27.5883 31.16 25.3762 31.16 18.1273C31.16 10.8785 29.468 5.71602 23 5.71602Z" fill="#FBD7B1"/>
<path d="M25.4783 23.3637H23.0266H20.5748C20.2933 23.3637 20.1738 23.5578 20.3597 23.8504C20.62 24.2578 21.5842 25.0426 23.0266 25.0426C24.4689 25.0426 25.4331 24.2578 25.6934 23.8504C25.882 23.5578 25.7598 23.3637 25.4783 23.3637Z" fill="#212121"/>
<path d="M20.2402 18.6113C20.2402 19.3879 19.7355 20.0195 19.1086 20.0195C18.4844 20.0195 17.9744 19.3906 17.9744 18.6113C17.9744 17.832 18.4817 17.2031 19.1086 17.2031C19.7355 17.2031 20.2402 17.832 20.2402 18.6113Z" fill="#212121"/>
<path d="M25.8156 18.6113C25.8156 19.3879 26.3203 20.0195 26.9498 20.0195C27.5741 20.0195 28.0814 19.3906 28.0814 18.6113C28.0814 17.832 27.5741 17.2031 26.9498 17.2031C26.3203 17.2031 25.8156 17.832 25.8156 18.6113Z" fill="#212121"/>
<path d="M24.198 21.2199C23.7809 21.3402 23.348 21.4004 23.0133 21.4004C22.6786 21.4004 22.2456 21.3402 21.8286 21.2199C21.6506 21.168 21.5789 21.343 21.6453 21.4578C21.7781 21.6984 22.3094 22.1797 23.0133 22.1797C23.7172 22.1797 24.2484 21.6957 24.3812 21.4578C24.4477 21.3402 24.3759 21.168 24.198 21.2199Z" fill="#DBA689"/>
<path d="M25.4384 11.4199C24.5805 12.2703 20.3145 16.227 14.4362 17.2578V9.14766C14.4362 9.14766 16.973 3.96602 23.0611 3.96602C29.1492 3.96602 31.6859 9.27891 31.6859 9.27891V17.2578C31.6859 17.2578 27.6962 15.6828 25.6934 11.4691C25.6828 11.4454 25.6667 11.4247 25.6467 11.4087C25.6267 11.3927 25.6032 11.3818 25.5782 11.377C25.5533 11.3721 25.5276 11.3735 25.5033 11.381C25.479 11.3885 25.4567 11.4018 25.4384 11.4199Z" fill="#312D2D"/>
<path d="M26.315 28.2691L24.615 37H26.5434L29.5928 33.7215L28.3311 31.9168L30.2223 30.6289L29.1572 28.8926C29.1572 28.8926 27.8158 28.4715 26.315 28.2691Z" fill="#DD0021"/>
<path d="M20.6227 28.157C20.6227 28.5754 20.9706 29.3656 21.5258 30.0219C22.0889 30.6891 23.0266 31.102 23.0266 31.102L20.2694 34.1344L19.2759 28.3348C19.2786 28.3348 20.0834 28.2035 20.6227 28.157Z" fill="white"/>
<path d="M19.7487 28.2637L21.4487 37H19.5123L16.4736 33.7078L17.7353 31.9031L15.8441 30.6152L16.9225 28.8543C16.9225 28.8543 18.2453 28.466 19.7487 28.2637Z" fill="#DD0021"/>
<path d="M23.077 33.9922C23.325 33.9922 23.5259 33.7853 23.5259 33.5301C23.5259 33.2749 23.325 33.068 23.077 33.068C22.8291 33.068 22.6281 33.2749 22.6281 33.5301C22.6281 33.7853 22.8291 33.9922 23.077 33.9922Z" fill="#B7B7B7"/>
</g>
<defs>
<clipPath id="clip0">
<rect x="6" y="2" width="34" height="35" fill="white"/>
</clipPath>
</defs>
</svg>
