<svg width="35" height="36" viewBox="0 0 35 36" fill="none" xmlns="http://www.w3.org/2000/svg">
<path d="M17.8801 7.12125C17.7783 7.02112 17.6429 6.96523 17.5021 6.96523C17.3612 6.96523 17.2258 7.02112 17.124 7.12125L4.53906 19.4871C4.48562 19.5397 4.4431 19.6029 4.41407 19.6729C4.38505 19.7428 4.37013 19.8181 4.37021 19.8942L4.36816 31.5C4.36816 32.0967 4.59863 32.669 5.00887 33.091C5.4191 33.5129 5.9755 33.75 6.55566 33.75H13.125C13.4151 33.75 13.6933 33.6315 13.8984 33.4205C14.1035 33.2095 14.2188 32.9234 14.2188 32.625V23.0625C14.2188 22.9133 14.2764 22.7702 14.3789 22.6648C14.4815 22.5593 14.6206 22.5 14.7656 22.5H20.2344C20.3794 22.5 20.5185 22.5593 20.6211 22.6648C20.7236 22.7702 20.7813 22.9133 20.7813 23.0625V32.625C20.7813 32.9234 20.8965 33.2095 21.1016 33.4205C21.3067 33.6315 21.5849 33.75 21.875 33.75H28.4416C29.0218 33.75 29.5782 33.5129 29.9884 33.091C30.3986 32.669 30.6291 32.0967 30.6291 31.5V19.8942C30.6292 19.8181 30.6143 19.7428 30.5852 19.6729C30.5562 19.6029 30.5137 19.5397 30.4603 19.4871L17.8801 7.12125Z" fill="white"/>
<path d="M33.5583 17.1668L28.445 12.1352V4.5C28.445 4.20163 28.3298 3.91548 28.1247 3.7045C27.9196 3.49353 27.6414 3.375 27.3513 3.375H24.07C23.78 3.375 23.5018 3.49353 23.2966 3.7045C23.0915 3.91548 22.9763 4.20163 22.9763 4.5V6.75L19.0169 2.85609C18.6464 2.47078 18.0954 2.25 17.5 2.25C16.9067 2.25 16.3571 2.47078 15.9865 2.8568L1.44651 17.1654C1.02131 17.5873 0.967995 18.2812 1.35491 18.7383C1.45207 18.8536 1.57103 18.9475 1.70457 19.014C1.8381 19.0806 1.9834 19.1185 2.13164 19.1255C2.27987 19.1325 2.42793 19.1083 2.56681 19.0546C2.70569 19.0008 2.83249 18.9186 2.93948 18.8128L17.1241 4.87125C17.2258 4.77111 17.3612 4.71522 17.5021 4.71522C17.6429 4.71522 17.7783 4.77111 17.8801 4.87125L32.066 18.8128C32.275 19.0189 32.5549 19.1314 32.8444 19.1256C33.1338 19.1198 33.4093 18.9962 33.6103 18.7819C34.03 18.3347 33.9951 17.5964 33.5583 17.1668Z" fill="white"/>
</svg>
