<svg width="30" height="28" viewBox="0 0 30 28" fill="none" xmlns="http://www.w3.org/2000/svg">
<path d="M27.1875 26.25H2.8125C1.25918 26.25 0 25.0748 0 23.625V4.375C0 2.92523 1.25918 1.75 2.8125 1.75H27.1875C28.7408 1.75 30 2.92523 30 4.375V23.625C30 25.0748 28.7408 26.25 27.1875 26.25ZM7.5 6.5625C6.20561 6.5625 5.15625 7.5419 5.15625 8.75C5.15625 9.9581 6.20561 10.9375 7.5 10.9375C8.79439 10.9375 9.84375 9.9581 9.84375 8.75C9.84375 7.5419 8.79439 6.5625 7.5 6.5625ZM7.5 11.8125C6.20561 11.8125 5.15625 12.7919 5.15625 14C5.15625 15.2081 6.20561 16.1875 7.5 16.1875C8.79439 16.1875 9.84375 15.2081 9.84375 14C9.84375 12.7919 8.79439 11.8125 7.5 11.8125ZM7.5 17.0625C6.20561 17.0625 5.15625 18.0419 5.15625 19.25C5.15625 20.4581 6.20561 21.4375 7.5 21.4375C8.79439 21.4375 9.84375 20.4581 9.84375 19.25C9.84375 18.0419 8.79439 17.0625 7.5 17.0625ZM24.375 9.625V7.875C24.375 7.51259 24.0602 7.21875 23.6719 7.21875H11.9531C11.5648 7.21875 11.25 7.51259 11.25 7.875V9.625C11.25 9.98741 11.5648 10.2812 11.9531 10.2812H23.6719C24.0602 10.2812 24.375 9.98741 24.375 9.625ZM24.375 14.875V13.125C24.375 12.7626 24.0602 12.4688 23.6719 12.4688H11.9531C11.5648 12.4688 11.25 12.7626 11.25 13.125V14.875C11.25 15.2374 11.5648 15.5312 11.9531 15.5312H23.6719C24.0602 15.5312 24.375 15.2374 24.375 14.875ZM24.375 20.125V18.375C24.375 18.0126 24.0602 17.7188 23.6719 17.7188H11.9531C11.5648 17.7188 11.25 18.0126 11.25 18.375V20.125C11.25 20.4874 11.5648 20.7812 11.9531 20.7812H23.6719C24.0602 20.7812 24.375 20.4874 24.375 20.125Z" fill="white"/>
</svg>
