<svg width="27" height="28" viewBox="0 0 27 28" fill="none" xmlns="http://www.w3.org/2000/svg">
<path d="M13.5 14C17.7609 14 21.2143 10.8664 21.2143 7C21.2143 3.13359 17.7609 0 13.5 0C9.23906 0 5.78571 3.13359 5.78571 7C5.78571 10.8664 9.23906 14 13.5 14ZM18.9 15.75H17.8935C16.5556 16.3078 15.067 16.625 13.5 16.625C11.933 16.625 10.4504 16.3078 9.10647 15.75H8.1C3.62812 15.75 0 19.0422 0 23.1V25.375C0 26.8242 1.29576 28 2.89286 28H24.1071C25.7042 28 27 26.8242 27 25.375V23.1C27 19.0422 23.3719 15.75 18.9 15.75Z" fill="white"/>
</svg>
